<?xml version="1.0" standalone="no"?>
<!DOCTYPE svg PUBLIC "-//W3C//DTD SVG 20010904//EN"
 "http://www.w3.org/TR/2001/REC-SVG-20010904/DTD/svg10.dtd">
<svg version="1.0" xmlns="http://www.w3.org/2000/svg"
 width="1040.000000pt" height="1280.000000pt" viewBox="0 0 1040.000000 1280.000000"
 preserveAspectRatio="xMidYMid meet">
<metadata>
Created by potrace 1.15, written by Peter Selinger 2001-2017
</metadata>
<g transform="translate(0.000000,1280.000000) scale(0.100000,-0.100000)"
fill="#000000" stroke="none">
<path d="M770 12779 c-30 -11 -73 -26 -95 -33 -35 -12 -40 -18 -52 -62 -20
-78 -17 -240 7 -317 51 -163 181 -277 338 -293 l59 -7 33 -77 c82 -201 217
-388 544 -755 78 -88 192 -221 253 -296 67 -82 191 -212 313 -330 243 -233
299 -301 437 -529 58 -96 183 -301 278 -455 206 -336 298 -492 398 -683 83
-157 82 -163 -18 -98 -127 83 -205 195 -337 484 -118 259 -143 304 -248 452
-197 276 -411 533 -844 1015 -319 355 -459 516 -566 648 -47 58 -92 108 -100
111 -9 4 -52 -4 -95 -15 -44 -12 -112 -22 -152 -23 -87 -1 -79 -9 -169 169
-37 72 -78 146 -92 165 l-27 35 -6 -30 c-12 -57 -9 -233 6 -318 20 -116 67
-253 127 -369 l50 -98 108 0 107 0 46 -49 c51 -54 68 -102 87 -236 23 -163 59
-244 204 -445 41 -58 103 -157 138 -220 97 -180 170 -299 316 -515 486 -718
558 -834 658 -1054 53 -119 128 -321 120 -328 -2 -2 -35 27 -73 64 -121 120
-196 248 -333 568 -155 364 -186 411 -445 675 -216 220 -259 273 -274 341 -16
70 -45 148 -86 229 -58 116 -205 360 -216 360 -6 0 -43 -13 -82 -29 -70 -29
-103 -36 -159 -33 -24 2 -32 12 -67 85 -39 83 -83 211 -96 281 -10 51 6 77 79
127 91 63 111 93 54 83 -67 -12 -96 -26 -133 -62 -74 -74 -105 -175 -105 -348
0 -133 19 -254 62 -389 36 -114 191 -429 333 -680 231 -406 362 -673 440 -897
27 -78 39 -135 51 -243 24 -226 63 -355 224 -745 207 -499 234 -593 245 -855
5 -117 13 -173 35 -260 56 -216 119 -337 348 -679 194 -289 259 -397 298 -498
20 -49 37 -76 63 -95 140 -105 278 -272 491 -593 191 -288 252 -354 430 -472
185 -122 432 -234 800 -360 96 -34 177 -62 179 -64 2 -2 -2 -11 -10 -20 -11
-14 -27 -15 -104 -10 -70 5 -94 4 -110 -7 -19 -14 -18 -16 10 -52 83 -110 241
-244 404 -345 l84 -52 27 29 c86 89 715 782 870 958 168 190 388 456 543 655
l136 175 -27 14 c-95 48 -149 167 -109 239 l13 23 21 -23 c11 -13 35 -51 52
-84 29 -60 70 -104 97 -104 7 0 34 9 61 20 85 37 93 71 34 135 -81 88 -114
187 -157 465 -14 96 -49 265 -76 375 -45 179 -51 215 -55 340 -3 88 1 208 11
322 21 238 20 379 -3 538 -94 640 -372 1200 -708 1428 -56 37 -68 52 -109 132
-26 50 -101 185 -167 300 -273 478 -370 717 -409 1006 l-12 89 -38 15 c-21 8
-45 15 -53 15 -36 0 -97 34 -112 63 -22 44 -21 446 2 463 8 6 53 14 98 16 93
6 127 19 127 48 0 25 -53 40 -146 40 -128 0 -233 -50 -344 -163 -155 -159
-260 -454 -229 -646 14 -89 102 -269 217 -441 136 -205 172 -240 322 -314 118
-57 129 -65 187 -135 34 -41 106 -149 160 -240 64 -108 120 -189 163 -234 l65
-70 -45 8 c-114 18 -182 79 -275 245 -116 209 -134 229 -373 410 -145 109
-185 156 -310 362 -51 84 -118 182 -148 218 -30 36 -57 73 -60 82 -21 61 -99
218 -151 304 -34 56 -133 203 -220 327 -87 125 -182 269 -211 321 -50 88 -57
96 -115 127 -198 104 -277 169 -637 524 -168 165 -336 326 -375 356 -129 104
-305 212 -312 193 -21 -62 -77 -102 -173 -124 -71 -16 -130 -40 -130 -51 0 -5
60 -69 133 -142 138 -139 210 -198 542 -439 536 -391 629 -509 1104 -1395 166
-310 219 -404 324 -569 68 -107 72 -111 142 -147 39 -20 84 -50 99 -66 33 -35
45 -97 23 -125 -14 -19 -17 -18 -88 29 -100 66 -223 193 -304 314 -37 56 -139
241 -226 413 -88 172 -189 356 -224 409 -72 108 -156 205 -186 214 -11 4 -38
-3 -64 -16 -60 -30 -74 -18 -57 46 15 58 15 136 0 188 -29 97 -161 191 -283
201 -33 3 -62 5 -64 5 -2 1 2 8 9 16 7 9 29 15 51 15 35 0 39 3 39 25 0 39
-159 186 -560 520 -428 357 -669 584 -823 778 -43 53 -81 97 -85 97 -22 0 -76
-46 -111 -94 -44 -59 -83 -86 -127 -86 -36 0 -222 119 -301 193 -100 93 -139
202 -93 259 10 14 52 42 92 63 73 37 118 71 118 87 0 16 -105 7 -160 -13z
m1620 -897 c0 -47 14 -62 57 -62 30 0 33 -2 24 -19 -12 -21 -42 -35 -118 -55
-52 -13 -53 -13 -53 10 0 15 -12 30 -35 44 -19 12 -35 30 -35 40 0 27 11 51
21 45 4 -3 25 3 46 14 21 11 50 20 66 21 25 0 27 -3 27 -38z m-689 -191 c-12
-22 -36 -51 -54 -65 -34 -26 -141 -55 -154 -42 -13 12 99 114 161 145 70 37
81 29 47 -38z m105 -85 c-15 -62 -90 -116 -161 -116 -44 0 -44 14 0 56 33 31
155 97 164 89 2 -2 1 -15 -3 -29z m1364 -454 c0 -13 -62 -68 -95 -85 -54 -27
-75 -30 -75 -12 0 31 32 77 63 90 35 15 107 20 107 7z m-1703 -74 c13 -15 8
-19 -59 -51 -40 -19 -88 -38 -105 -42 -38 -8 -42 4 -19 60 16 38 56 63 119 74
34 5 43 4 46 -9 1 -8 10 -23 18 -32z m73 -169 c0 -6 -15 -26 -34 -45 -36 -36
-70 -43 -101 -20 -18 13 -18 15 -2 39 9 14 29 27 44 30 56 8 93 7 93 -4z
m1130 -91 c32 -34 26 -55 -18 -61 -57 -10 -124 -58 -161 -116 -18 -28 -38 -51
-45 -51 -33 0 -46 52 -26 104 13 36 88 106 135 127 53 25 90 24 115 -3z m-44
-175 c-4 -16 -15 -39 -24 -53 -18 -26 -108 -77 -118 -67 -11 11 34 95 62 114
59 41 89 43 80 6z m988 -29 c23 -9 19 -37 -9 -64 -32 -30 -114 -40 -138 -15
-28 28 -20 40 46 63 69 23 78 25 101 16z m-744 -201 c0 -10 -9 -33 -21 -52
l-20 -34 50 5 c44 4 51 3 51 -13 0 -33 -58 -87 -117 -109 -31 -11 -57 -19 -58
-18 -1 2 -6 19 -11 38 -7 28 -18 39 -57 58 -26 12 -47 26 -47 30 0 22 59 59
133 84 99 33 97 32 97 11z m340 -35 c0 -45 -36 -68 -105 -68 l-46 0 16 30 c18
36 59 59 103 60 27 0 32 -4 32 -22z m32 -86 c8 -30 -8 -58 -46 -80 -20 -12
-39 -29 -42 -37 -9 -23 -34 1 -34 32 0 35 17 61 53 83 40 25 63 25 69 2z
m-951 -38 c34 -17 68 -82 69 -127 l0 -28 -32 24 c-54 39 -93 50 -161 45 -61
-5 -136 -35 -199 -80 -34 -24 -35 -17 -4 36 62 106 239 176 327 130z m1027
-86 c-16 -25 -92 -68 -120 -68 -12 0 -18 7 -18 23 0 45 34 66 104 67 48 0 48
0 34 -22z m-2005 -177 c-20 -27 -51 -45 -140 -84 l-52 -22 24 -50 c21 -42 22
-52 11 -64 -25 -24 -65 -5 -86 42 -29 62 -26 112 8 144 32 31 135 81 200 97
46 12 47 12 50 -12 2 -14 -5 -37 -15 -51z m998 -119 c-36 -70 -124 -134 -223
-163 -28 -8 -29 -7 -23 20 8 37 -12 56 -66 65 -54 9 -69 21 -69 58 0 27 3 29
28 24 15 -3 47 -8 72 -11 52 -8 90 -29 90 -50 0 -8 5 -15 10 -15 19 0 64 27
85 50 26 30 75 60 98 60 16 0 16 -2 -2 -38z m2652 -42 c-13 -49 -93 -79 -162
-60 -36 9 -81 49 -81 71 0 7 225 18 242 11 3 -1 4 -11 1 -22z m-2603 -45 c0
-32 -69 -118 -112 -141 -30 -15 -84 -19 -92 -6 -8 13 82 97 134 126 43 25 70
32 70 21z m2266 -34 c18 -17 110 -41 179 -47 64 -6 153 4 198 21 27 11 21 -18
-10 -47 -46 -43 -93 -61 -168 -65 -115 -6 -202 41 -221 120 -6 27 3 35 22 18z
m-936 -324 c30 -12 55 -27 55 -32 0 -33 -132 -38 -205 -8 l-35 14 28 25 c36
31 83 31 157 1z m761 -27 c33 -17 57 -35 54 -39 -3 -5 -26 -14 -52 -20 -84
-20 -176 24 -156 75 9 25 88 17 154 -16z m87 -146 c33 -25 92 -110 92 -134 0
-25 -21 -31 -91 -23 -52 5 -59 8 -54 24 9 26 -11 56 -48 75 -38 20 -47 31 -47
63 0 23 2 23 60 19 39 -3 70 -11 88 -24z m-2708 -53 c-10 -20 -118 -95 -180
-126 -19 -10 -49 -28 -67 -41 -41 -31 -43 -30 -43 9 0 88 124 173 258 176 39
1 42 -1 32 -18z m1938 -3 c44 -11 102 -58 102 -83 0 -18 -37 -25 -90 -16 -76
12 -99 31 -114 93 -6 26 -5 27 26 22 18 -3 52 -10 76 -16z m-1880 -180 c18
-18 15 -27 -20 -48 -22 -13 -51 -20 -86 -20 -50 0 -52 1 -42 21 25 46 119 76
148 47z m2110 -94 c34 -7 25 -43 -17 -71 -76 -51 -204 -15 -223 63 -5 20 -2
20 106 17 61 -2 121 -6 134 -9z m-2028 -34 c0 -32 -21 -67 -48 -80 -14 -6 -63
-14 -109 -17 -78 -6 -83 -5 -83 14 0 33 37 56 128 79 109 28 112 28 112 4z
m2682 -65 c28 -25 61 -48 74 -51 19 -5 22 -9 13 -20 -17 -21 -75 -28 -123 -14
-79 22 -132 96 -90 127 29 22 70 8 126 -42z m-1655 6 c56 -36 59 -40 55 -73
-6 -54 12 -76 93 -113 67 -30 95 -55 95 -84 0 -7 -26 -11 -65 -11 -49 0 -86 8
-148 31 -45 18 -83 33 -84 34 -2 1 6 18 17 39 24 49 15 69 -56 119 -54 38 -66
61 -42 85 23 23 73 13 135 -27z m1066 -57 c45 -7 58 -16 37 -29 -21 -13 -10
-54 24 -82 34 -28 62 -71 53 -80 -10 -10 -117 -4 -139 8 -13 6 -51 38 -85 70
-34 31 -71 60 -82 64 -26 8 -27 27 -3 47 23 21 48 25 102 16 25 -4 66 -11 93
-14z m676 -211 c75 -51 80 -73 16 -73 -43 0 -160 87 -143 107 19 24 56 14 127
-34z m647 2 c42 -19 94 -38 115 -41 35 -6 37 -8 28 -31 -23 -60 -3 -116 50
-143 24 -12 24 -13 6 -26 -10 -8 -31 -14 -47 -14 -15 0 -28 -5 -28 -10 0 -13
35 -45 80 -74 19 -12 36 -32 38 -44 3 -19 -1 -22 -30 -22 -34 1 -49 6 -185 60
l-81 33 19 36 c26 48 24 56 -17 88 -19 15 -42 40 -50 55 l-14 27 47 3 47 3
-25 28 c-13 15 -48 35 -77 45 -51 17 -52 18 -37 40 23 32 70 28 161 -13z
m-1172 -47 c14 -6 28 -19 31 -30 22 -66 -54 -81 -119 -23 -22 19 -37 37 -35
39 32 27 83 33 123 14z m-1024 -20 c27 -14 50 -36 62 -58 l18 -35 -42 -3
c-100 -8 -168 22 -168 73 0 16 8 26 28 33 41 15 54 14 102 -10z m1135 -162
c78 -51 -9 -103 -95 -57 -38 20 -80 73 -80 101 0 16 6 16 76 -6 42 -13 86 -30
99 -38z m65 -171 c0 -34 -28 -43 -112 -37 -67 4 -68 5 -68 33 l0 29 90 0 c90
0 90 0 90 -25z m-1085 -60 c17 -16 25 -35 25 -59 l0 -35 -47 20 c-63 27 -73
36 -73 70 0 27 3 29 35 29 25 0 44 -8 60 -25z m2220 -5 c17 -10 54 -44 84 -74
l54 -55 -26 -7 c-64 -15 -159 31 -196 96 -33 58 -29 74 17 65 20 -4 51 -15 67
-25z m32 -282 c17 -18 46 -59 66 -90 30 -47 34 -58 22 -68 -24 -20 -49 -7 -82
45 -42 64 -65 86 -91 88 -27 2 -27 5 0 34 29 31 48 29 85 -9z m-3168 -39 c-39
-50 -67 -68 -113 -76 -29 -4 -36 -2 -36 10 0 57 67 106 143 107 l39 0 -33 -41z
m2173 31 c36 -11 68 -42 68 -67 0 -16 -60 -17 -130 -2 -48 10 -80 36 -80 66 0
16 88 18 142 3z m644 -65 c12 -8 26 -27 32 -42 15 -35 31 -143 22 -143 -10 0
-70 47 -86 67 -20 26 -36 90 -29 113 8 24 32 26 61 5z m-2793 -64 c14 -14 -1
-31 -47 -52 -54 -25 -96 -25 -96 -1 0 22 17 45 45 61 22 12 82 8 98 -8z m2670
-68 c-2 -16 5 -55 16 -87 24 -69 28 -126 7 -126 -20 0 -65 38 -81 70 -22 43
-20 125 5 150 30 30 57 26 53 -7z m-109 -135 c16 -131 16 -179 -1 -185 -40
-15 -93 65 -93 141 0 58 20 86 61 86 25 0 28 -4 33 -42z m-594 -33 c29 -35
-17 -135 -62 -135 -22 0 -24 36 -3 64 8 11 15 35 15 53 0 26 4 33 19 33 10 0
24 -7 31 -15z m481 -93 c-5 -26 -5 -58 0 -83 11 -46 6 -59 -22 -59 -35 0 -59
36 -59 88 0 52 19 88 54 102 31 12 38 -1 27 -48z m-359 -58 c12 -26 4 -66 -33
-150 -17 -40 -21 -45 -35 -33 -18 14 -16 61 7 166 12 55 15 60 32 52 10 -6 23
-21 29 -35z m-1722 -23 c0 -23 -23 -68 -48 -94 -35 -37 -89 -65 -144 -73 l-43
-7 29 39 c51 69 90 106 131 125 44 20 75 24 75 10z m698 -37 c27 -19 48 -58
57 -106 7 -35 5 -38 -21 -44 -22 -6 -32 -2 -50 20 -24 27 -44 84 -44 124 0 26
25 29 58 6z m-618 -81 c0 -53 -53 -125 -115 -156 -38 -19 -105 -32 -105 -21 0
5 33 50 73 100 39 50 78 103 86 117 l14 27 24 -22 c13 -12 23 -32 23 -45z
m2114 -48 c20 -41 34 -173 22 -219 -7 -29 -32 -56 -51 -56 -11 0 -14 31 -14
161 0 172 6 189 43 114z m-1353 -37 c7 -24 12 -106 12 -186 0 -97 4 -141 11
-139 15 5 24 43 25 104 1 57 10 68 46 59 34 -9 40 -36 37 -167 -2 -138 7 -161
57 -142 l31 11 0 -99 c0 -127 -19 -169 -76 -169 -11 0 -14 18 -13 90 2 102 -7
125 -47 109 -40 -15 -44 -12 -44 39 0 60 -21 92 -61 92 l-30 0 3 168 c3 139 0
172 -13 199 -15 28 -15 34 -2 52 24 35 51 27 64 -21z m1038 -40 c14 -24 12
-31 -17 -89 -45 -90 -64 -113 -90 -105 -37 12 -35 36 9 99 30 42 42 70 43 97
0 33 3 37 21 30 11 -4 26 -18 34 -32z m-1756 -22 c-5 -25 -19 -43 -71 -88 -16
-14 -35 -35 -41 -45 -9 -16 -12 -16 -21 -3 -16 25 -12 47 17 80 27 33 90 78
109 79 7 1 9 -9 7 -23z m2196 -62 c43 -55 20 -240 -36 -284 -34 -26 -43 -18
-43 37 0 56 40 273 51 273 4 0 17 -12 28 -26z m695 -50 c9 -8 16 -26 16 -39 0
-21 -5 -23 -84 -30 -95 -8 -126 2 -126 39 0 17 8 25 38 33 59 17 138 15 156
-3z m-592 -85 l41 -21 -6 -96 c-5 -88 -37 -225 -57 -245 -19 -21 -30 66 -28
221 2 89 4 162 6 162 1 0 21 -9 44 -21z m-487 -21 c-15 -68 -41 -102 -88 -113
-27 -7 -28 -6 -21 21 20 84 49 123 92 124 21 0 23 -3 17 -32z m1103 -100 c56
-12 65 -28 30 -52 -49 -35 -181 -7 -208 43 -8 16 -6 21 8 25 22 6 102 -1 170
-16z m-509 -166 c19 -42 41 -99 48 -127 14 -52 16 -181 5 -252 l-7 -43 -23 35
c-67 97 -100 246 -83 370 6 42 11 81 11 86 0 26 19 0 49 -69z m535 -3 c26 -12
40 -35 30 -50 -3 -5 -25 -9 -50 -9 -53 0 -165 29 -158 41 15 25 136 37 178 18z
m-1004 -43 c16 -50 -1 -100 -62 -185 -47 -65 -54 -71 -65 -55 -27 37 -16 72
57 186 22 34 40 70 40 80 0 28 17 13 30 -26z m-210 -265 c0 -45 -1 -46 -43
-63 -77 -32 -82 -25 -32 48 25 36 45 70 45 76 0 6 6 6 15 -2 9 -8 15 -30 15
-59z m868 17 c20 -81 50 -368 38 -368 -10 0 -49 83 -62 135 -21 78 -17 275 6
275 4 0 12 -19 18 -42z m173 -237 c23 -19 24 -22 21 -162 -2 -79 -6 -146 -8
-149 -9 -8 -33 31 -44 70 -12 44 -13 260 -1 260 5 0 19 -9 32 -19z m-1047
-223 c8 -13 17 -45 21 -73 3 -27 8 -65 11 -82 4 -30 2 -33 -19 -33 -44 0 -62
33 -66 126 -3 80 -2 84 18 84 11 0 27 -10 35 -22z m1190 -101 c3 -23 3 -85 -2
-137 l-7 -95 -18 26 c-21 31 -22 53 -12 176 6 75 11 91 21 82 7 -6 15 -29 18
-52z m-493 7 c18 -16 45 -82 37 -89 -2 -3 -21 0 -42 6 -39 11 -76 56 -76 93 0
15 5 17 32 12 17 -3 40 -13 49 -22z m-202 -53 c44 -23 87 -81 106 -145 l14
-46 -69 35 c-80 41 -110 76 -110 134 0 46 6 49 59 22z m847 11 c31 -21 36 -55
29 -199 -8 -157 -13 -167 -52 -93 -24 46 -30 134 -17 248 7 50 16 60 40 44z
m-1015 -54 c39 -36 84 -108 94 -150 6 -22 4 -28 -10 -28 -39 0 -84 32 -104 73
-19 42 -34 137 -22 137 4 0 23 -15 42 -32z m-127 -40 c20 -28 76 -146 76 -163
0 -3 -8 -5 -19 -5 -30 0 -70 38 -97 93 -15 29 -33 60 -41 69 -20 22 -9 38 27
38 21 0 36 -9 54 -32z m1267 -41 c13 -13 43 -45 66 -70 28 -30 53 -48 75 -52
32 -6 33 -8 34 -54 0 -32 9 -63 26 -92 14 -24 28 -56 32 -71 6 -26 4 -28 -27
-28 -43 0 -62 21 -77 85 -7 28 -19 60 -27 73 -22 36 -43 11 -43 -49 0 -27 -4
-49 -10 -49 -17 0 -51 40 -66 77 -16 38 -29 253 -15 253 4 0 19 -11 32 -23z
m-963 -899 c30 -30 -4 -103 -67 -145 -71 -48 -80 -21 -21 58 22 30 40 64 40
76 0 25 27 32 48 11z m179 -90 c-7 -50 -57 -119 -114 -157 -133 -88 -141 -24
-12 99 48 46 79 84 79 96 0 31 11 36 33 17 14 -14 18 -27 14 -55z m-645 -644
c44 -9 95 -14 114 -12 27 3 34 1 32 -11 -5 -25 -68 -51 -121 -51 -73 0 -117
29 -117 76 0 17 -4 17 92 -2z"/>
<path d="M873 12680 c-74 -38 -102 -114 -68 -180 8 -16 39 -47 68 -69 158
-118 330 -149 400 -71 26 29 28 38 23 73 -23 144 -154 255 -309 264 -59 4 -79
0 -114 -17z"/>
<path d="M1547 12510 c-20 -29 -36 -41 -62 -46 -32 -6 -35 -9 -35 -41 0 -28 8
-44 42 -77 l42 -41 6 42 c4 25 22 65 43 96 42 60 46 82 18 97 -27 14 -25 15
-54 -30z"/>
<path d="M1718 12446 c-21 -7 -49 -21 -62 -30 -25 -16 -25 -16 -9 -62 9 -27
37 -69 70 -104 135 -146 298 -149 358 -7 l15 36 -72 60 c-125 103 -220 137
-300 107z"/>
<path d="M483 12277 c-63 -66 -93 -161 -93 -298 0 -124 42 -296 98 -404 l20
-40 1 105 c1 155 33 255 118 374 28 39 34 54 29 80 -9 47 -54 138 -84 169 -45
48 -56 50 -89 14z"/>
<path d="M2513 12113 c5 -45 25 -73 52 -73 14 0 46 86 39 105 -4 10 -21 15
-51 15 l-46 0 6 -47z"/>
<path d="M891 11946 c-8 -13 -40 -39 -72 -57 -55 -32 -59 -36 -54 -63 16 -90
86 -184 160 -216 52 -23 105 -33 105 -19 0 5 20 18 44 29 l44 18 -40 124 c-35
105 -47 129 -83 166 -49 49 -85 55 -104 18z"/>
<path d="M2907 11883 c-2 -5 -7 -37 -11 -72 -6 -52 -4 -66 10 -82 24 -27 33
-24 50 16 19 46 18 110 -2 129 -16 17 -40 21 -47 9z"/>
<path d="M3041 11728 c-33 -97 -23 -136 27 -109 41 22 69 130 40 159 -27 27
-46 13 -67 -50z"/>
<path d="M3200 11643 c-6 -32 -16 -78 -21 -103 -12 -56 -4 -110 17 -110 32 0
62 50 74 123 7 40 16 82 21 94 7 19 4 25 -21 38 -48 25 -56 20 -70 -42z"/>
<path d="M3361 11560 c-26 -61 -41 -162 -30 -209 4 -20 18 -44 31 -55 l23 -18
7 40 c4 23 18 78 33 123 29 91 27 130 -8 154 -12 8 -24 15 -28 15 -4 0 -16
-22 -28 -50z"/>
<path d="M3506 11408 c-56 -158 -52 -244 9 -204 59 38 97 215 61 284 -9 18
-20 32 -24 32 -4 0 -25 -50 -46 -112z"/>
<path d="M413 11414 c-18 -9 -50 -36 -72 -59 l-40 -43 16 -59 c23 -89 12 -243
-32 -433 -41 -178 -55 -337 -35 -418 6 -28 26 -72 43 -99 l31 -48 12 85 c16
114 30 157 70 212 22 32 50 54 84 70 59 27 65 51 26 107 -14 20 -28 48 -31 63
-6 24 -2 30 39 55 25 15 46 31 46 35 0 5 -15 8 -34 8 -37 0 -62 21 -52 45 4
11 16 15 38 14 18 -2 58 -2 88 0 49 1 53 3 37 15 -10 8 -26 12 -36 9 -27 -7
-87 22 -94 46 -3 14 13 48 54 110 l60 90 -29 40 c-33 46 -48 80 -57 134 -6 37
-6 37 -53 37 -26 0 -62 -8 -79 -16z"/>
<path d="M3681 11397 c-5 -18 -21 -72 -35 -121 -50 -170 -24 -258 53 -171 36
41 53 98 54 180 1 99 -52 181 -72 112z"/>
<path d="M3815 11193 c-34 -102 -40 -202 -14 -228 14 -14 19 -8 54 72 49 113
58 190 24 222 -12 11 -25 21 -29 21 -3 0 -19 -39 -35 -87z"/>
<path d="M3990 11196 c0 -8 -18 -73 -41 -143 -44 -138 -53 -231 -29 -288 l13
-30 8 43 c4 23 26 98 49 167 47 146 56 200 38 234 -15 29 -38 39 -38 17z"/>
<path d="M4096 11048 c-36 -214 -68 -381 -82 -426 -21 -70 -17 -72 21 -12 71
113 132 327 122 430 -5 54 -24 110 -37 110 -4 0 -14 -46 -24 -102z"/>
<path d="M4265 11095 c-3 -17 -25 -104 -47 -195 -38 -151 -64 -358 -43 -338 8
8 50 123 97 263 45 135 49 232 14 281 -14 18 -15 18 -21 -11z"/>
<path d="M4409 11034 c-42 -111 -52 -155 -40 -181 14 -31 20 -26 54 53 30 68
35 125 12 144 -12 10 -17 7 -26 -16z"/>
<path d="M913 10839 c-35 -23 -63 -49 -63 -58 1 -33 39 -191 54 -220 27 -51
62 -71 127 -71 l58 0 8 38 c12 60 7 173 -11 234 -19 66 -58 118 -89 118 -12 0
-50 -19 -84 -41z"/>
<path d="M4897 10736 c-39 -36 -59 -84 -65 -152 -6 -76 10 -125 55 -175 42
-46 53 -49 53 -11 0 15 9 61 21 102 43 157 43 226 -1 250 -27 14 -34 13 -63
-14z"/>
<path d="M484 10500 c-114 -222 -182 -431 -238 -740 -13 -74 -45 -299 -70
-500 -59 -469 -79 -590 -128 -785 -34 -131 -41 -178 -42 -260 -1 -99 -1 -101
43 -185 24 -47 108 -195 186 -330 327 -566 407 -752 499 -1175 96 -434 111
-486 183 -628 58 -113 82 -137 174 -175 110 -46 196 -57 284 -39 39 8 71 14
73 12 8 -7 -45 -58 -77 -74 -43 -23 -135 -41 -204 -41 -41 0 -48 -3 -43 -17 3
-10 24 -83 46 -163 148 -517 326 -856 568 -1081 76 -70 84 -82 161 -237 170
-340 255 -476 376 -597 89 -90 209 -170 270 -179 22 -4 87 0 144 7 100 13 151
12 151 -3 0 -4 -28 -22 -62 -41 -54 -28 -75 -34 -149 -37 -99 -5 -155 9 -259
65 -109 59 -234 170 -335 296 l-38 48 -19 -28 c-40 -59 -99 -186 -120 -260
-20 -67 -23 -102 -23 -238 0 -137 3 -171 23 -239 46 -160 117 -284 224 -395
216 -221 509 -279 796 -157 121 51 144 69 147 108 1 20 16 55 35 83 40 57 59
107 60 153 0 28 3 32 26 32 14 0 57 14 95 31 76 33 96 34 113 6 9 -16 6 -23
-21 -46 -37 -31 -39 -36 -18 -44 9 -4 21 8 36 37 63 128 169 232 413 409 184
133 263 202 325 284 81 107 125 213 145 348 l6 41 -58 22 c-82 33 -127 42
-215 43 -87 0 -133 -18 -148 -60 -8 -20 -7 -22 8 -15 34 15 107 16 126 2 18
-13 17 -16 -20 -43 -21 -16 -80 -69 -130 -117 -149 -141 -204 -172 -266 -149
-24 9 -30 5 -90 -67 -127 -151 -195 -202 -275 -202 -54 0 -57 8 -14 40 53 39
131 118 210 213 37 45 110 133 162 195 97 117 184 195 283 255 l58 35 -54 31
c-161 92 -384 276 -529 436 -165 181 -265 314 -568 755 -219 318 -314 448
-424 579 -39 46 -81 96 -93 110 -24 30 -23 30 -53 -29 -29 -58 -49 -80 -72
-80 -29 0 -22 38 22 128 22 44 40 86 40 92 0 26 -48 -5 -111 -71 -37 -38 -70
-69 -74 -69 -12 0 -45 21 -45 29 0 4 32 52 70 106 77 108 95 153 78 191 -16
34 -32 30 -47 -13 -21 -60 -61 -136 -84 -161 -27 -29 -89 -62 -117 -62 -18 0
-17 4 13 43 96 125 145 342 134 582 -17 342 -140 749 -310 1027 l-41 68 -61
-64 c-46 -49 -70 -67 -104 -76 -23 -6 -45 -10 -47 -7 -2 2 3 27 12 56 12 42
31 69 91 132 l76 80 -12 97 c-36 298 -126 605 -268 916 -53 116 -58 120 -128
90 -21 -9 -67 -35 -102 -59 -95 -65 -142 -76 -229 -50 -20 6 -21 4 -17 -46 2
-29 11 -83 18 -121 8 -38 15 -95 15 -127 l0 -58 73 -74 c256 -262 448 -780
407 -1101 -17 -142 -50 -218 -129 -301 -73 -77 -175 -120 -310 -130 l-65 -5
92 43 c147 70 230 159 278 301 23 67 27 96 27 189 0 188 -47 362 -163 600 -65
133 -202 355 -220 355 -11 0 -140 -89 -225 -156 -73 -57 -130 -80 -172 -69
-25 6 -73 47 -73 62 0 5 27 9 60 10 111 3 193 56 244 159 44 88 59 181 60 369
0 169 -30 572 -45 589 -4 4 -54 2 -113 -5 -120 -14 -145 -8 -170 40 l-16 30
68 -6 c178 -15 308 73 357 242 14 50 37 236 29 244 -2 2 -31 -3 -64 -12 -111
-31 -161 -15 -122 40 73 104 49 269 -91 628 l-55 139 -28 -54z m276 -849 c0
-33 -24 -42 -109 -40 l-81 1 0 29 0 29 95 0 c86 0 95 -2 95 -19z m-70 -106 c0
-13 -34 -72 -54 -93 -22 -25 -67 -52 -85 -52 -23 0 -31 38 -16 79 8 23 12 48
9 56 -5 12 7 15 70 15 42 0 76 -2 76 -5z m-106 -438 c51 -37 -62 -91 -132 -62
-23 10 -32 20 -30 32 3 15 14 18 57 18 35 0 56 5 58 13 6 16 24 15 47 -1z
m632 -432 c-12 -60 -110 -125 -190 -125 -14 0 -26 4 -26 8 0 16 45 50 107 81
34 17 73 45 85 62 25 34 33 25 24 -26z m14 -142 c0 -50 -54 -103 -105 -103
-35 0 -36 1 -33 32 3 28 10 36 50 55 26 13 53 31 60 42 17 27 28 17 28 -26z
m-473 -509 c17 -45 -51 -94 -98 -70 -24 11 -35 45 -25 72 8 21 114 20 123 -2z
m803 -915 c-33 -125 -107 -215 -199 -244 l-24 -7 20 28 c12 16 39 67 61 114
21 47 50 96 62 109 21 22 81 53 88 46 2 -2 -2 -23 -8 -46z m40 -144 c0 -7 -18
-47 -40 -89 -22 -41 -40 -82 -40 -91 0 -18 -16 -20 -26 -4 -16 26 -3 73 38
143 32 55 46 71 56 64 6 -6 12 -16 12 -23z m630 -1261 c14 -36 -13 -89 -59
-119 -42 -27 -81 -40 -81 -28 0 17 110 172 123 173 4 0 12 -12 17 -26z m21
-203 c-10 -37 -69 -101 -91 -101 -25 0 -5 53 37 104 14 17 30 41 35 55 l10 26
11 -23 c7 -16 7 -33 -2 -61z m-90 -1287 c72 -21 78 -29 38 -53 -62 -38 -178
-21 -194 29 -3 11 -3 24 0 30 9 15 95 12 156 -6z m195 -148 c-9 -38 -54 -56
-136 -56 -75 0 -88 11 -51 44 17 15 178 49 190 40 2 -2 1 -14 -3 -28z m64
-144 c0 -38 -29 -62 -79 -69 -40 -6 -41 -5 -41 24 0 43 35 71 93 72 23 1 27
-3 27 -27z m90 -907 c75 -77 67 -79 -70 -13 -139 67 -233 175 -276 316 -14 44
-13 43 134 -96 81 -77 176 -171 212 -207z m904 -97 c-12 -40 -36 -68 -78 -93
-51 -30 -124 -47 -160 -37 -27 7 -25 9 48 60 80 56 149 91 179 92 14 0 17 -5
11 -22z"/>
<path d="M5176 10453 c-14 -21 -33 -58 -42 -83 -20 -55 -23 -174 -4 -215 l13
-30 7 30 c4 17 30 75 58 130 58 112 64 150 29 183 -13 12 -26 22 -30 22 -4 0
-18 -17 -31 -37z"/>
<path d="M5297 10243 c-4 -3 -7 -13 -7 -20 0 -8 -20 -61 -45 -118 -25 -57 -48
-123 -50 -147 -6 -46 11 -93 34 -93 16 0 86 155 107 238 12 45 13 65 4 92 -12
36 -33 59 -43 48z"/>
<path d="M5360 9924 c-32 -75 -45 -175 -31 -239 15 -65 31 -81 31 -30 0 22 16
71 40 122 53 111 57 131 30 166 -30 38 -48 34 -70 -19z"/>
<path d="M5473 9713 c-3 -10 -19 -52 -36 -93 -16 -41 -31 -98 -34 -126 -5 -45
-2 -55 18 -75 l23 -23 8 37 c4 20 21 63 36 94 58 116 61 167 12 193 -17 9 -21
8 -27 -7z"/>
<path d="M5555 9484 c-47 -114 -59 -222 -30 -274 13 -25 14 -24 54 62 60 127
64 209 12 238 -18 9 -22 6 -36 -26z"/>
<path d="M878 9443 c-52 -98 -63 -202 -47 -465 11 -178 15 -208 28 -208 46 1
261 108 261 130 0 14 -10 13 -97 -15 -42 -13 -80 -22 -82 -19 -3 3 27 36 67
73 72 67 80 83 62 111 -8 12 -13 11 -33 -8 -25 -24 -66 -29 -85 -10 -21 21
-13 39 26 54 50 21 82 53 82 82 0 23 -3 24 -57 22 -84 -3 -93 -2 -93 15 0 9
20 24 45 35 36 16 45 24 45 45 0 22 -4 25 -34 25 -52 0 -59 18 -31 75 13 28
25 53 25 58 0 10 -38 47 -48 47 -5 0 -20 -21 -34 -47z"/>
<path d="M5646 9215 c-20 -79 -20 -135 -2 -161 18 -23 17 -24 50 58 38 97 34
131 -20 161 -8 4 -17 -16 -28 -58z"/>
<path d="M7759 5490 c-183 -18 -351 -84 -541 -211 -131 -88 -241 -184 -520
-455 -354 -342 -513 -507 -887 -914 -179 -195 -427 -458 -552 -585 -227 -230
-227 -230 -249 -300 -87 -283 -91 -715 -10 -1090 23 -107 89 -315 99 -315 5 0
33 9 63 19 74 26 258 63 523 106 247 40 395 74 402 91 2 7 -19 68 -48 136 -63
147 -75 230 -40 285 11 17 29 36 39 42 18 10 20 6 24 -64 4 -66 12 -88 57
-178 28 -56 55 -122 59 -147 l8 -45 50 3 c74 4 142 26 287 97 73 35 143 66
156 70 23 7 22 5 -10 -40 -75 -106 -222 -198 -389 -244 -111 -30 -237 -48
-510 -71 -346 -29 -464 -48 -610 -96 -236 -78 -402 -255 -489 -520 -97 -298
-82 -699 36 -966 l25 -56 62 -11 c279 -49 561 -38 1063 39 106 17 196 30 201
30 18 0 221 141 285 198 261 232 452 564 623 1082 25 74 88 278 140 454 199
669 285 907 434 1194 126 243 199 343 429 586 136 145 206 240 356 486 278
457 441 624 657 675 80 19 136 19 218 0 68 -16 220 -82 220 -96 0 -10 -66 -65
-170 -142 -46 -34 -95 -77 -107 -96 -25 -37 -31 -91 -11 -91 7 0 63 52 125
115 135 140 182 164 260 134 l28 -11 -30 -25 c-16 -14 -91 -79 -166 -144 -74
-66 -160 -138 -190 -160 -47 -36 -139 -89 -154 -89 -3 0 -5 16 -5 35 0 52 -21
54 -91 7 -57 -39 -89 -45 -89 -18 0 28 67 114 180 231 112 116 135 152 105
162 -5 1 -77 -58 -160 -133 -240 -217 -385 -344 -391 -344 -10 0 56 114 99
172 24 31 111 128 195 215 83 87 166 177 183 201 l30 42 -38 -16 c-264 -110
-368 -228 -623 -704 -113 -211 -153 -271 -400 -600 -117 -157 -242 -328 -276
-380 -168 -256 -264 -506 -289 -750 l-6 -65 21 30 c12 17 54 95 94 175 70 138
156 270 175 270 5 0 -15 -57 -44 -127 -29 -71 -114 -278 -190 -462 -366 -894
-586 -1338 -841 -1703 -30 -43 -54 -80 -54 -83 0 -4 26 14 58 38 94 73 213
205 295 327 128 193 220 398 448 995 162 425 292 666 444 822 l75 78 -39 -75
c-71 -133 -178 -383 -297 -693 -248 -646 -347 -860 -507 -1102 -115 -173 -289
-358 -413 -441 -30 -19 -54 -37 -54 -39 0 -5 55 20 120 54 249 131 464 378
640 736 81 166 136 299 272 655 177 466 283 696 400 871 58 88 156 202 212
249 l30 25 -21 -35 c-63 -103 -205 -368 -288 -535 -188 -383 -299 -690 -380
-1050 -4 -16 -4 -28 -1 -25 3 3 57 120 121 259 384 842 702 1383 1086 1846
170 206 534 546 712 665 20 14 35 30 34 35 -2 6 -26 25 -53 42 -56 37 -84 68
-84 92 0 30 179 164 243 182 35 9 117 -2 117 -17 0 -23 -32 -50 -94 -78 -65
-30 -97 -59 -81 -74 5 -5 125 9 208 25 l32 6 -31 -34 c-29 -30 -81 -119 -70
-119 2 0 23 9 47 20 53 24 140 26 200 5 24 -9 74 -38 111 -65 37 -27 81 -56
98 -65 31 -16 32 -16 84 24 93 70 142 173 134 280 l-3 45 -55 16 c-123 37
-243 117 -333 224 -30 36 -106 138 -168 227 -63 90 -142 193 -175 228 l-61 65
-135 4 c-277 8 -494 -48 -693 -179 -33 -22 -47 -29 -30 -15 34 29 34 28 -21
44 -23 7 -63 29 -90 49 l-48 37 34 8 c19 4 86 11 149 14 l114 7 -44 39 c-399
352 -745 502 -1080 468z m601 -372 c-1 -7 -7 -24 -15 -38 -21 -37 -19 -40 28
-40 59 0 104 -15 162 -51 l50 -32 -80 -23 c-44 -13 -94 -24 -111 -24 -38 0
-164 -61 -289 -140 -110 -69 -215 -124 -222 -116 -11 11 56 115 112 172 61 62
105 93 210 151 67 37 64 40 -18 18 -76 -20 -176 -71 -322 -165 -66 -42 -137
-87 -159 -100 l-38 -23 12 22 c25 48 158 175 240 230 100 67 201 111 332 145
112 29 108 29 108 14z m249 -425 c-107 -111 -150 -172 -361 -504 -158 -248
-214 -322 -368 -487 -251 -268 -313 -339 -365 -417 -111 -167 -203 -428 -384
-1090 -160 -585 -231 -796 -342 -1017 -105 -209 -241 -369 -378 -446 l-40 -23
84 126 c173 258 300 549 476 1090 61 187 150 462 199 610 214 657 406 1030
673 1308 46 48 68 77 57 77 -24 0 -74 -40 -121 -98 -42 -51 -70 -69 -88 -57
-17 10 440 609 518 679 27 24 27 17 0 -28 -12 -20 -18 -36 -14 -36 23 0 308
206 435 314 36 30 67 55 70 56 2 0 -21 -26 -51 -57z m-2978 -2393 c16 -66 38
-144 49 -173 19 -51 73 -117 86 -105 5 6 -3 71 -27 198 -16 93 -4 240 21 240
4 0 10 -19 13 -43 10 -69 54 -199 129 -380 38 -93 67 -171 64 -174 -13 -13
-71 24 -106 69 -36 45 -40 47 -52 30 -22 -31 -35 -33 -102 -21 l-65 12 -29 81
c-56 156 -73 215 -80 278 -7 63 1 179 15 201 12 19 52 -83 84 -213z m762 -301
c4 -17 -1 -19 -39 -19 -25 0 -58 7 -74 15 -50 26 -75 99 -50 145 9 17 17 11
84 -52 41 -38 76 -79 79 -89z m-1368 -1284 c53 -107 113 -297 95 -303 -14 -5
-63 24 -92 55 -15 15 -36 49 -47 75 -18 43 -61 266 -61 319 0 24 0 24 25 -6
14 -16 50 -79 80 -140z m190 24 c13 -90 22 -119 36 -119 13 0 39 42 50 83 5
20 14 37 19 37 18 0 39 -32 46 -68 9 -53 30 -82 59 -82 20 0 26 7 35 43 23 86
19 81 43 59 12 -10 56 -42 98 -70 72 -48 129 -102 129 -123 0 -14 -69 -10
-126 7 -67 22 -84 15 -84 -32 0 -36 -1 -36 -32 -30 -18 4 -58 9 -89 13 -49 5
-62 2 -104 -23 l-48 -28 -29 34 c-15 19 -33 50 -38 70 -20 67 -32 204 -25 278
7 74 7 74 27 55 14 -14 24 -46 33 -104z m782 5 c30 -9 70 -14 89 -12 44 5 39
-10 -10 -35 -54 -28 -148 -29 -176 -2 -13 13 -17 27 -14 43 8 27 34 28 111 6z
m-126 -84 c38 -23 67 -45 64 -50 -13 -21 -80 -32 -120 -21 -89 24 -147 82
-127 126 l12 25 51 -19 c28 -11 82 -38 120 -61z"/>
<path d="M1358 4443 c-181 -255 -306 -649 -357 -1133 -24 -224 -32 -406 -34
-752 l-1 -368 24 -17 c57 -39 140 -127 249 -263 63 -80 145 -174 180 -209 l65
-63 98 7 c55 4 127 11 161 16 34 5 109 9 167 9 89 0 112 -4 155 -24 28 -13 58
-32 67 -42 16 -18 16 -23 2 -63 -23 -68 -7 -118 73 -226 57 -76 81 -122 89
-175 6 -38 11 -44 53 -62 97 -42 209 -61 346 -61 192 0 306 27 620 148 105 40
238 85 297 99 59 14 129 37 155 50 107 54 203 165 334 383 171 286 232 361
438 537 88 75 182 161 209 192 98 110 134 223 112 353 -12 71 -13 73 -30 55
-10 -11 -64 -89 -121 -174 -119 -181 -203 -270 -299 -317 -35 -17 -66 -30 -68
-28 -2 2 33 38 77 81 232 221 399 451 460 632 33 96 27 104 -28 45 -49 -52
-59 -68 -162 -257 -62 -115 -140 -205 -205 -236 -25 -12 -47 -20 -50 -17 -5 5
39 63 163 215 110 135 155 227 161 329 5 90 -2 88 -43 -12 -78 -194 -199 -341
-337 -409 -96 -46 -114 -46 -90 4 18 38 75 97 199 207 91 82 123 134 123 206
0 48 -14 63 -25 27 -11 -35 -118 -162 -186 -221 -111 -97 -322 -240 -335 -227
-13 13 89 138 179 221 189 171 243 230 280 309 20 40 38 87 42 103 l7 30 -28
-25 c-16 -14 -109 -103 -209 -199 -167 -162 -298 -271 -367 -307 -15 -8 -28
-11 -28 -6 0 26 75 119 163 202 207 194 257 247 285 307 29 64 35 152 13 207
l-12 29 -26 -24 c-14 -13 -69 -80 -123 -149 -53 -69 -118 -144 -144 -168 -54
-49 -150 -98 -212 -108 -37 -5 -47 -13 -89 -71 -84 -114 -213 -265 -318 -372
-270 -275 -507 -410 -864 -490 -433 -97 -757 -112 -1025 -45 -100 25 -259 92
-318 134 l-30 21 96 192 c196 391 358 745 474 1037 76 192 95 248 88 256 -4 3
-20 3 -37 -1 -29 -6 -73 -49 -134 -128 -31 -41 -44 -46 -54 -20 -12 30 44 116
122 186 41 38 75 72 75 77 0 17 -86 -12 -113 -38 -16 -15 -46 -59 -68 -99 -22
-39 -56 -86 -76 -104 l-37 -32 -13 29 c-7 16 -12 59 -13 97 0 78 23 152 75
239 19 33 35 61 35 64 0 2 -8 4 -18 4 -35 0 -62 -30 -78 -88 -18 -63 -38 -92
-65 -92 -15 0 -16 5 -7 36 5 20 25 71 44 112 41 89 55 144 43 163 -8 11 -12
10 -21 -5 -26 -45 -75 -89 -92 -83 -14 6 -8 23 44 127 l61 121 -31 26 c-17 14
-38 39 -47 57 -45 89 -86 98 -135 29z m1026 -3092 c26 -22 36 -3 36 70 0 38 3
69 8 69 16 0 66 -41 127 -103 47 -49 75 -69 107 -77 40 -11 103 -8 117 5 3 4
-17 28 -46 53 -58 53 -73 78 -73 121 l0 31 44 -34 c119 -91 385 -118 516 -52
l50 25 0 -23 c0 -21 -26 -52 -58 -70 -7 -5 -87 -20 -177 -36 -203 -34 -250
-58 -281 -138 -2 -5 -248 18 -309 29 -69 12 -148 52 -170 85 -26 40 -36 107
-24 171 6 32 13 62 17 67 3 5 27 -33 53 -85 26 -52 54 -101 63 -108z"/>
<path d="M1600 2760 c-69 -137 -131 -249 -197 -352 l-43 -68 33 -15 c17 -8 57
-28 87 -45 30 -16 70 -30 89 -30 l33 0 -8 73 c-20 195 1 323 61 376 65 57 71
50 79 -104 8 -161 27 -282 57 -353 l22 -52 88 0 c49 0 89 2 89 4 0 2 -13 32
-29 67 -15 35 -52 127 -80 204 -65 174 -141 330 -185 381 l-33 39 -63 -125z"/>
<path d="M4700 2279 c-118 -81 -202 -186 -385 -484 -157 -255 -213 -331 -323
-436 -122 -117 -203 -156 -502 -243 -194 -57 -246 -77 -379 -143 l-153 -78
-118 -3 c-255 -7 -646 94 -846 220 -75 46 -122 106 -176 218 -49 104 -101 183
-133 204 -24 16 -26 16 -37 -8 -9 -21 -6 -41 23 -123 25 -74 33 -113 32 -160
l-2 -62 61 -46 c204 -153 455 -247 761 -285 113 -14 404 -14 527 0 529 59
1073 264 1425 538 50 38 99 80 111 93 11 13 35 65 52 114 17 50 51 147 76 216
75 213 93 344 59 448 -9 28 -19 51 -22 51 -3 0 -26 -14 -51 -31z"/>
<path d="M4775 1648 c-14 -21 -14 -24 2 -36 31 -23 93 -37 111 -25 26 16 20
35 -17 60 -43 29 -76 29 -96 1z"/>
<path d="M2018 1398 c-2 -15 -11 -24 -25 -26 -13 -2 -23 -5 -23 -8 0 -11 55
-112 77 -142 26 -34 70 -62 101 -62 25 0 61 29 44 37 -36 14 -75 62 -114 138
-24 47 -46 85 -50 85 -4 0 -8 -10 -10 -22z"/>
</g>
</svg>
